# xmcd
#
# Track frame offsets:
#	150
#	11172
#	23886
#	41194
#	52284
#	75484
#	96565
#	109610
#	131993
#	147014
#	162162
#	176194
#	194670
#	213044
#	228711
#	244174
#	256135
#	270816
#	289566
#	319470
#
# Disc length: 4645 seconds
#
# Revision: 1
# Processed by: cddbd v1.5.2PL0 Copyright (c) Steve Scherf et al.
# Submitted via: EZCDAudioConverter 2.1.7.1
#
DISCID=2a122314
DTITLE=V/A - Another Splash Of Colour 3/3
DYEAR=2016
DGENRE=
TTITLE0=Revolving Paint Dream - Flowers In The Sky
TTITLE1=Naz Nomad and The Nightmares - I Had Too Much To Dream (Last Night)
TTITLE2=Julian Cope - Sunspots
TTITLE3=Jasmine Minks - Mr. Magic
TTITLE4=Icicle Works - Nirvana
TTITLE5=Way Out - Do I Have To Be Here?
TTITLE6=The Prisoners - Reaching My Head
TTITLE7=Playn Jayn - In Your Eyes [Live]
TTITLE8=The Primevals - Where Are You?
TTITLE9=The Dentists - Strawberries Are Growing In My Garden (And It's Wintert
TTITLE9=ime)
TTITLE10=Doctor and The Medics - Barbara Can't Dance [Demo]
TTITLE11=Biff Bang Pow! - A Day Out With Jeremy Chester
TTITLE12=Mood Six - Plastic Flowers [Psycho Version]
TTITLE13=Freight Train - Man's Laughter
TTITLE14=The Onlookers - You Know Everything
TTITLE15=Direct Hits - Doctor Ben
TTITLE16=Green Telescope - Two By Two
TTITLE17=Magic Mushroom Band - Wide Eyed And Electrick
TTITLE18=Brainiac Five - Endless River
TTITLE19=Captain Sensible - The 4 Marys Go Go Dance All Night At The Groovy Ce
TTITLE19=llar
EXTD=
EXTT0=
EXTT1=
EXTT2=
EXTT3=
EXTT4=
EXTT5=
EXTT6=
EXTT7=
EXTT8=
EXTT9=
EXTT10=
EXTT11=
EXTT12=
EXTT13=
EXTT14=
EXTT15=
EXTT16=
EXTT17=
EXTT18=
EXTT19=
PLAYORDER=
